<mxfile host="Electron" modified="2024-04-02T06:24:29.831Z" agent="Mozilla/5.0 (Macintosh; Intel Mac OS X 10_15_7) AppleWebKit/537.36 (KHTML, like Gecko) draw.io/24.0.4 Chrome/120.0.6099.109 Electron/28.1.0 Safari/537.36" etag="94qrRgwTBb-JXwnJyltA" version="24.0.4" type="device">
  <diagram name="第 1 页" id="t2Gk2wGnUYupz7Yqa3de">
    <mxGraphModel dx="2069" dy="-356" grid="1" gridSize="10" guides="1" tooltips="1" connect="1" arrows="1" fold="1" page="1" pageScale="1" pageWidth="827" pageHeight="1169" math="0" shadow="0">
      <root>
        <mxCell id="0" />
        <mxCell id="1" parent="0" />
        <mxCell id="aHi8xhGPnXS4gX-2XBMW-1" value="浏览器" style="shape=umlLifeline;perimeter=lifelinePerimeter;whiteSpace=wrap;html=1;container=1;dropTarget=0;collapsible=0;recursiveResize=0;outlineConnect=0;portConstraint=eastwest;newEdgeStyle={&quot;curved&quot;:0,&quot;rounded&quot;:0};fillColor=#dae8fc;strokeColor=#6c8ebf;strokeWidth=2;" vertex="1" parent="1">
          <mxGeometry x="-400" y="1340" width="100" height="1330" as="geometry" />
        </mxCell>
        <mxCell id="aHi8xhGPnXS4gX-2XBMW-2" value="SP" style="shape=umlLifeline;perimeter=lifelinePerimeter;whiteSpace=wrap;html=1;container=1;dropTarget=0;collapsible=0;recursiveResize=0;outlineConnect=0;portConstraint=eastwest;newEdgeStyle={&quot;curved&quot;:0,&quot;rounded&quot;:0};fillColor=#dae8fc;strokeColor=#6c8ebf;strokeWidth=2;" vertex="1" parent="1">
          <mxGeometry x="-175" y="1340" width="100" height="1330" as="geometry" />
        </mxCell>
        <mxCell id="aHi8xhGPnXS4gX-2XBMW-3" value="" style="html=1;points=[[0,0,0,0,5],[0,1,0,0,-5],[1,0,0,0,5],[1,1,0,0,-5]];perimeter=orthogonalPerimeter;outlineConnect=0;targetShapes=umlLifeline;portConstraint=eastwest;newEdgeStyle={&quot;curved&quot;:0,&quot;rounded&quot;:0};" vertex="1" parent="aHi8xhGPnXS4gX-2XBMW-2">
          <mxGeometry x="45" y="190" width="10" height="40" as="geometry" />
        </mxCell>
        <mxCell id="aHi8xhGPnXS4gX-2XBMW-4" value="3、用户未登录" style="html=1;align=left;spacingLeft=2;endArrow=block;rounded=0;edgeStyle=orthogonalEdgeStyle;curved=0;rounded=0;" edge="1" parent="aHi8xhGPnXS4gX-2XBMW-2" target="aHi8xhGPnXS4gX-2XBMW-3">
          <mxGeometry relative="1" as="geometry">
            <mxPoint x="50" y="170" as="sourcePoint" />
            <Array as="points">
              <mxPoint x="80" y="200" />
            </Array>
          </mxGeometry>
        </mxCell>
        <mxCell id="aHi8xhGPnXS4gX-2XBMW-5" value="" style="html=1;points=[[0,0,0,0,5],[0,1,0,0,-5],[1,0,0,0,5],[1,1,0,0,-5]];perimeter=orthogonalPerimeter;outlineConnect=0;targetShapes=umlLifeline;portConstraint=eastwest;newEdgeStyle={&quot;curved&quot;:0,&quot;rounded&quot;:0};" vertex="1" parent="aHi8xhGPnXS4gX-2XBMW-2">
          <mxGeometry x="43" y="830" width="10" height="40" as="geometry" />
        </mxCell>
        <mxCell id="aHi8xhGPnXS4gX-2XBMW-6" value="13、校验授权应答、返回参数" style="html=1;align=left;spacingLeft=2;endArrow=block;rounded=0;edgeStyle=orthogonalEdgeStyle;curved=0;rounded=0;" edge="1" parent="aHi8xhGPnXS4gX-2XBMW-2" target="aHi8xhGPnXS4gX-2XBMW-5">
          <mxGeometry relative="1" as="geometry">
            <mxPoint x="48" y="810" as="sourcePoint" />
            <Array as="points">
              <mxPoint x="78" y="840" />
            </Array>
          </mxGeometry>
        </mxCell>
        <mxCell id="aHi8xhGPnXS4gX-2XBMW-7" value="" style="html=1;points=[[0,0,0,0,5],[0,1,0,0,-5],[1,0,0,0,5],[1,1,0,0,-5]];perimeter=orthogonalPerimeter;outlineConnect=0;targetShapes=umlLifeline;portConstraint=eastwest;newEdgeStyle={&quot;curved&quot;:0,&quot;rounded&quot;:0};" vertex="1" parent="aHi8xhGPnXS4gX-2XBMW-2">
          <mxGeometry x="48" y="1180" width="10" height="40" as="geometry" />
        </mxCell>
        <mxCell id="aHi8xhGPnXS4gX-2XBMW-8" value="19、完成单点登录" style="html=1;align=left;spacingLeft=2;endArrow=block;rounded=0;edgeStyle=orthogonalEdgeStyle;curved=0;rounded=0;" edge="1" parent="aHi8xhGPnXS4gX-2XBMW-2" target="aHi8xhGPnXS4gX-2XBMW-7">
          <mxGeometry relative="1" as="geometry">
            <mxPoint x="53" y="1160" as="sourcePoint" />
            <Array as="points">
              <mxPoint x="83" y="1190" />
            </Array>
          </mxGeometry>
        </mxCell>
        <mxCell id="aHi8xhGPnXS4gX-2XBMW-9" value="IdP" style="shape=umlLifeline;perimeter=lifelinePerimeter;whiteSpace=wrap;html=1;container=1;dropTarget=0;collapsible=0;recursiveResize=0;outlineConnect=0;portConstraint=eastwest;newEdgeStyle={&quot;curved&quot;:0,&quot;rounded&quot;:0};fillColor=#dae8fc;strokeColor=#6c8ebf;strokeWidth=2;" vertex="1" parent="1">
          <mxGeometry x="38.98" y="1340" width="100" height="1330" as="geometry" />
        </mxCell>
        <mxCell id="aHi8xhGPnXS4gX-2XBMW-10" value="" style="html=1;points=[[0,0,0,0,5],[0,1,0,0,-5],[1,0,0,0,5],[1,1,0,0,-5]];perimeter=orthogonalPerimeter;outlineConnect=0;targetShapes=umlLifeline;portConstraint=eastwest;newEdgeStyle={&quot;curved&quot;:0,&quot;rounded&quot;:0};" vertex="1" parent="aHi8xhGPnXS4gX-2XBMW-9">
          <mxGeometry x="47.02" y="360" width="10" height="40" as="geometry" />
        </mxCell>
        <mxCell id="aHi8xhGPnXS4gX-2XBMW-11" value="6、参数校验" style="html=1;align=left;spacingLeft=2;endArrow=block;rounded=0;edgeStyle=orthogonalEdgeStyle;curved=0;rounded=0;" edge="1" parent="aHi8xhGPnXS4gX-2XBMW-9" target="aHi8xhGPnXS4gX-2XBMW-10">
          <mxGeometry x="0.0118" relative="1" as="geometry">
            <mxPoint x="52.02" y="340" as="sourcePoint" />
            <Array as="points">
              <mxPoint x="82.02000000000001" y="370" />
            </Array>
            <mxPoint as="offset" />
          </mxGeometry>
        </mxCell>
        <mxCell id="aHi8xhGPnXS4gX-2XBMW-12" value="" style="html=1;points=[[0,0,0,0,5],[0,1,0,0,-5],[1,0,0,0,5],[1,1,0,0,-5]];perimeter=orthogonalPerimeter;outlineConnect=0;targetShapes=umlLifeline;portConstraint=eastwest;newEdgeStyle={&quot;curved&quot;:0,&quot;rounded&quot;:0};" vertex="1" parent="aHi8xhGPnXS4gX-2XBMW-9">
          <mxGeometry x="47.02" y="660" width="10" height="40" as="geometry" />
        </mxCell>
        <mxCell id="aHi8xhGPnXS4gX-2XBMW-13" value="10、成功认证、生成 CODE" style="html=1;align=left;spacingLeft=2;endArrow=block;rounded=0;edgeStyle=orthogonalEdgeStyle;curved=0;rounded=0;" edge="1" parent="aHi8xhGPnXS4gX-2XBMW-9" target="aHi8xhGPnXS4gX-2XBMW-12">
          <mxGeometry relative="1" as="geometry">
            <mxPoint x="52.02" y="640" as="sourcePoint" />
            <Array as="points">
              <mxPoint x="82.02000000000001" y="670" />
            </Array>
          </mxGeometry>
        </mxCell>
        <mxCell id="aHi8xhGPnXS4gX-2XBMW-14" value="" style="html=1;points=[[0,0,0,0,5],[0,1,0,0,-5],[1,0,0,0,5],[1,1,0,0,-5]];perimeter=orthogonalPerimeter;outlineConnect=0;targetShapes=umlLifeline;portConstraint=eastwest;newEdgeStyle={&quot;curved&quot;:0,&quot;rounded&quot;:0};" vertex="1" parent="aHi8xhGPnXS4gX-2XBMW-9">
          <mxGeometry x="47.02" y="950" width="10" height="40" as="geometry" />
        </mxCell>
        <mxCell id="aHi8xhGPnXS4gX-2XBMW-15" value="15、校验参数" style="html=1;align=left;spacingLeft=2;endArrow=block;rounded=0;edgeStyle=orthogonalEdgeStyle;curved=0;rounded=0;" edge="1" parent="aHi8xhGPnXS4gX-2XBMW-9" target="aHi8xhGPnXS4gX-2XBMW-14">
          <mxGeometry relative="1" as="geometry">
            <mxPoint x="52.02" y="930" as="sourcePoint" />
            <Array as="points">
              <mxPoint x="82.02000000000001" y="960" />
            </Array>
          </mxGeometry>
        </mxCell>
        <mxCell id="aHi8xhGPnXS4gX-2XBMW-16" value="" style="shape=umlLifeline;perimeter=lifelinePerimeter;whiteSpace=wrap;html=1;container=1;dropTarget=0;collapsible=0;recursiveResize=0;outlineConnect=0;portConstraint=eastwest;newEdgeStyle={&quot;curved&quot;:0,&quot;rounded&quot;:0};participant=umlActor;fillColor=#dae8fc;strokeColor=#6c8ebf;strokeWidth=2;" vertex="1" parent="1">
          <mxGeometry x="-555" y="1340" width="20" height="1330" as="geometry" />
        </mxCell>
        <mxCell id="aHi8xhGPnXS4gX-2XBMW-17" value="1、访问应用资源" style="html=1;verticalAlign=bottom;endArrow=block;curved=0;rounded=0;entryX=0.462;entryY=0.068;entryDx=0;entryDy=0;entryPerimeter=0;" edge="1" parent="1" source="aHi8xhGPnXS4gX-2XBMW-16" target="aHi8xhGPnXS4gX-2XBMW-1">
          <mxGeometry width="80" relative="1" as="geometry">
            <mxPoint x="-520" y="1430" as="sourcePoint" />
            <mxPoint x="-400" y="1430" as="targetPoint" />
          </mxGeometry>
        </mxCell>
        <mxCell id="aHi8xhGPnXS4gX-2XBMW-18" value="2、访问应用资源" style="html=1;verticalAlign=bottom;endArrow=block;curved=0;rounded=0;exitX=0.502;exitY=0.105;exitDx=0;exitDy=0;exitPerimeter=0;" edge="1" parent="1" source="aHi8xhGPnXS4gX-2XBMW-1" target="aHi8xhGPnXS4gX-2XBMW-2">
          <mxGeometry width="80" relative="1" as="geometry">
            <mxPoint x="-300" y="1480" as="sourcePoint" />
            <mxPoint x="-140" y="1480" as="targetPoint" />
            <mxPoint as="offset" />
          </mxGeometry>
        </mxCell>
        <mxCell id="aHi8xhGPnXS4gX-2XBMW-19" value="4、302 重定向到 IdP 进行授权认证" style="html=1;verticalAlign=bottom;endArrow=open;dashed=1;endSize=8;curved=0;rounded=0;entryX=0.472;entryY=0.195;entryDx=0;entryDy=0;entryPerimeter=0;" edge="1" parent="1" source="aHi8xhGPnXS4gX-2XBMW-2" target="aHi8xhGPnXS4gX-2XBMW-1">
          <mxGeometry x="0.0923" y="-10" relative="1" as="geometry">
            <mxPoint x="-150" y="1600" as="sourcePoint" />
            <mxPoint x="-340" y="1600" as="targetPoint" />
            <mxPoint as="offset" />
          </mxGeometry>
        </mxCell>
        <mxCell id="aHi8xhGPnXS4gX-2XBMW-20" value="5、认证授权请求&lt;div&gt;Authorization Request&lt;/div&gt;" style="html=1;verticalAlign=bottom;endArrow=block;curved=0;rounded=0;align=center;entryX=0.53;entryY=0.233;entryDx=0;entryDy=0;entryPerimeter=0;" edge="1" parent="1" source="aHi8xhGPnXS4gX-2XBMW-1" target="aHi8xhGPnXS4gX-2XBMW-9">
          <mxGeometry x="-0.0005" width="80" relative="1" as="geometry">
            <mxPoint x="-340" y="1650" as="sourcePoint" />
            <mxPoint x="60" y="1650" as="targetPoint" />
            <Array as="points">
              <mxPoint x="-250" y="1650" />
            </Array>
            <mxPoint as="offset" />
          </mxGeometry>
        </mxCell>
        <mxCell id="aHi8xhGPnXS4gX-2XBMW-21" value="7、展示默认登录页面" style="html=1;verticalAlign=bottom;endArrow=open;dashed=1;endSize=8;curved=0;rounded=0;entryX=0.432;entryY=0.347;entryDx=0;entryDy=0;entryPerimeter=0;" edge="1" parent="1" source="aHi8xhGPnXS4gX-2XBMW-9" target="aHi8xhGPnXS4gX-2XBMW-1">
          <mxGeometry x="-0.0005" relative="1" as="geometry">
            <mxPoint x="40" y="1800" as="sourcePoint" />
            <mxPoint x="-340" y="1801" as="targetPoint" />
            <mxPoint as="offset" />
          </mxGeometry>
        </mxCell>
        <mxCell id="aHi8xhGPnXS4gX-2XBMW-22" value="8、用户提交认证凭据" style="html=1;verticalAlign=bottom;endArrow=block;curved=0;rounded=0;entryX=0.512;entryY=0.39;entryDx=0;entryDy=0;entryPerimeter=0;" edge="1" parent="1" source="aHi8xhGPnXS4gX-2XBMW-16" target="aHi8xhGPnXS4gX-2XBMW-1">
          <mxGeometry width="80" relative="1" as="geometry">
            <mxPoint x="-520" y="1861" as="sourcePoint" />
            <mxPoint x="-430" y="1860" as="targetPoint" />
          </mxGeometry>
        </mxCell>
        <mxCell id="aHi8xhGPnXS4gX-2XBMW-23" value="9、提交认证凭据" style="html=1;verticalAlign=bottom;endArrow=block;curved=0;rounded=0;entryX=0.49;entryY=0.431;entryDx=0;entryDy=0;entryPerimeter=0;" edge="1" parent="1" source="aHi8xhGPnXS4gX-2XBMW-1" target="aHi8xhGPnXS4gX-2XBMW-9">
          <mxGeometry width="80" relative="1" as="geometry">
            <mxPoint x="-340" y="1910" as="sourcePoint" />
            <mxPoint x="40" y="1911" as="targetPoint" />
          </mxGeometry>
        </mxCell>
        <mxCell id="aHi8xhGPnXS4gX-2XBMW-24" value="如果用户未登录 IdP" style="shape=umlFrame;whiteSpace=wrap;html=1;pointerEvents=0;width=134;height=30;fillColor=#dae8fc;strokeColor=#6c8ebf;strokeWidth=2;" vertex="1" parent="1">
          <mxGeometry x="-594.14" y="1761" width="754.14" height="180" as="geometry" />
        </mxCell>
        <mxCell id="aHi8xhGPnXS4gX-2XBMW-25" value="11、302 重定向到应用，返回授权应答" style="html=1;verticalAlign=bottom;endArrow=open;dashed=1;endSize=8;curved=0;rounded=0;entryX=0.492;entryY=0.556;entryDx=0;entryDy=0;entryPerimeter=0;" edge="1" parent="1" source="aHi8xhGPnXS4gX-2XBMW-9" target="aHi8xhGPnXS4gX-2XBMW-1">
          <mxGeometry relative="1" as="geometry">
            <mxPoint x="50" y="2081" as="sourcePoint" />
            <mxPoint x="-340" y="2080" as="targetPoint" />
          </mxGeometry>
        </mxCell>
        <mxCell id="aHi8xhGPnXS4gX-2XBMW-26" value="12、授权应答&lt;div&gt;Authorization Response&lt;/div&gt;" style="html=1;verticalAlign=bottom;endArrow=block;curved=0;rounded=0;exitX=0.492;exitY=0.593;exitDx=0;exitDy=0;exitPerimeter=0;" edge="1" parent="1" source="aHi8xhGPnXS4gX-2XBMW-1" target="aHi8xhGPnXS4gX-2XBMW-2">
          <mxGeometry width="80" relative="1" as="geometry">
            <mxPoint x="-340" y="2130" as="sourcePoint" />
            <mxPoint x="-160" y="2130" as="targetPoint" />
          </mxGeometry>
        </mxCell>
        <mxCell id="aHi8xhGPnXS4gX-2XBMW-27" value="14、请求 ACCESS_TOKEN" style="html=1;verticalAlign=bottom;endArrow=block;curved=0;rounded=0;exitX=0.48;exitY=0.683;exitDx=0;exitDy=0;exitPerimeter=0;" edge="1" parent="1" source="aHi8xhGPnXS4gX-2XBMW-2" target="aHi8xhGPnXS4gX-2XBMW-9">
          <mxGeometry width="80" relative="1" as="geometry">
            <mxPoint x="-100" y="2250" as="sourcePoint" />
            <mxPoint x="70" y="2250" as="targetPoint" />
          </mxGeometry>
        </mxCell>
        <mxCell id="aHi8xhGPnXS4gX-2XBMW-28" value="16、返回 ACCESS_TOKEN" style="html=1;verticalAlign=bottom;endArrow=open;dashed=1;endSize=8;curved=0;rounded=0;entryX=0.47;entryY=0.766;entryDx=0;entryDy=0;entryPerimeter=0;" edge="1" parent="1" source="aHi8xhGPnXS4gX-2XBMW-9" target="aHi8xhGPnXS4gX-2XBMW-2">
          <mxGeometry relative="1" as="geometry">
            <mxPoint x="70" y="2360" as="sourcePoint" />
            <mxPoint x="-110" y="2360" as="targetPoint" />
          </mxGeometry>
        </mxCell>
        <mxCell id="aHi8xhGPnXS4gX-2XBMW-29" value="17、请求 UserInfo&lt;div&gt;携带 ACCESS_TOKEN&lt;/div&gt;" style="html=1;verticalAlign=bottom;endArrow=block;curved=0;rounded=0;exitX=0.5;exitY=0.812;exitDx=0;exitDy=0;exitPerimeter=0;" edge="1" parent="1" source="aHi8xhGPnXS4gX-2XBMW-2" target="aHi8xhGPnXS4gX-2XBMW-9">
          <mxGeometry width="80" relative="1" as="geometry">
            <mxPoint x="-110" y="2420" as="sourcePoint" />
            <mxPoint x="73.38000000000002" y="2420" as="targetPoint" />
          </mxGeometry>
        </mxCell>
        <mxCell id="aHi8xhGPnXS4gX-2XBMW-30" value="18、返回 UserInfo" style="html=1;verticalAlign=bottom;endArrow=open;dashed=1;endSize=8;curved=0;rounded=0;entryX=0.49;entryY=0.848;entryDx=0;entryDy=0;entryPerimeter=0;exitX=0.51;exitY=0.847;exitDx=0;exitDy=0;exitPerimeter=0;" edge="1" parent="1" source="aHi8xhGPnXS4gX-2XBMW-9" target="aHi8xhGPnXS4gX-2XBMW-2">
          <mxGeometry x="0.0001" relative="1" as="geometry">
            <mxPoint x="60" y="2468" as="sourcePoint" />
            <mxPoint x="-50" y="2470" as="targetPoint" />
            <mxPoint as="offset" />
          </mxGeometry>
        </mxCell>
        <mxCell id="aHi8xhGPnXS4gX-2XBMW-31" value="20、返回用户请求的资源" style="html=1;verticalAlign=bottom;endArrow=open;dashed=1;endSize=8;curved=0;rounded=0;entryX=0.502;entryY=0.948;entryDx=0;entryDy=0;entryPerimeter=0;" edge="1" parent="1" source="aHi8xhGPnXS4gX-2XBMW-2" target="aHi8xhGPnXS4gX-2XBMW-1">
          <mxGeometry x="0.004" relative="1" as="geometry">
            <mxPoint x="-180" y="2600" as="sourcePoint" />
            <mxPoint x="-260" y="2600" as="targetPoint" />
            <mxPoint as="offset" />
          </mxGeometry>
        </mxCell>
        <mxCell id="aHi8xhGPnXS4gX-2XBMW-32" value="21、返回用户请求的资源" style="html=1;verticalAlign=bottom;endArrow=open;dashed=1;endSize=8;curved=0;rounded=0;entryX=0.55;entryY=0.975;entryDx=0;entryDy=0;entryPerimeter=0;" edge="1" parent="1" source="aHi8xhGPnXS4gX-2XBMW-1" target="aHi8xhGPnXS4gX-2XBMW-16">
          <mxGeometry relative="1" as="geometry">
            <mxPoint x="-400" y="2640" as="sourcePoint" />
            <mxPoint x="-480" y="2640" as="targetPoint" />
          </mxGeometry>
        </mxCell>
        <mxCell id="aHi8xhGPnXS4gX-2XBMW-33" value="" style="shape=umlLifeline;perimeter=lifelinePerimeter;whiteSpace=wrap;html=1;container=1;dropTarget=0;collapsible=0;recursiveResize=0;outlineConnect=0;portConstraint=eastwest;newEdgeStyle={&quot;curved&quot;:0,&quot;rounded&quot;:0};participant=umlActor;fillColor=#dae8fc;strokeColor=#6c8ebf;strokeWidth=2;" vertex="1" parent="1">
          <mxGeometry x="-555" y="2820" width="20" height="620" as="geometry" />
        </mxCell>
        <mxCell id="aHi8xhGPnXS4gX-2XBMW-34" value="浏览器" style="shape=umlLifeline;perimeter=lifelinePerimeter;whiteSpace=wrap;html=1;container=1;dropTarget=0;collapsible=0;recursiveResize=0;outlineConnect=0;portConstraint=eastwest;newEdgeStyle={&quot;curved&quot;:0,&quot;rounded&quot;:0};fillColor=#dae8fc;strokeColor=#6c8ebf;strokeWidth=2;" vertex="1" parent="1">
          <mxGeometry x="-370" y="2820" width="100" height="620" as="geometry" />
        </mxCell>
        <mxCell id="aHi8xhGPnXS4gX-2XBMW-35" value="Auth Server" style="shape=umlLifeline;perimeter=lifelinePerimeter;whiteSpace=wrap;html=1;container=1;dropTarget=0;collapsible=0;recursiveResize=0;outlineConnect=0;portConstraint=eastwest;newEdgeStyle={&quot;curved&quot;:0,&quot;rounded&quot;:0};fillColor=#dae8fc;strokeColor=#6c8ebf;strokeWidth=2;" vertex="1" parent="1">
          <mxGeometry x="-110" y="2820" width="100" height="620" as="geometry" />
        </mxCell>
        <mxCell id="aHi8xhGPnXS4gX-2XBMW-40" value="" style="html=1;points=[[0,0,0,0,5],[0,1,0,0,-5],[1,0,0,0,5],[1,1,0,0,-5]];perimeter=orthogonalPerimeter;outlineConnect=0;targetShapes=umlLifeline;portConstraint=eastwest;newEdgeStyle={&quot;curved&quot;:0,&quot;rounded&quot;:0};" vertex="1" parent="aHi8xhGPnXS4gX-2XBMW-35">
          <mxGeometry x="45" y="240" width="10" height="40" as="geometry" />
        </mxCell>
        <mxCell id="aHi8xhGPnXS4gX-2XBMW-41" value="3、参数校验" style="html=1;align=left;spacingLeft=2;endArrow=block;rounded=0;edgeStyle=orthogonalEdgeStyle;curved=0;rounded=0;" edge="1" target="aHi8xhGPnXS4gX-2XBMW-40" parent="aHi8xhGPnXS4gX-2XBMW-35">
          <mxGeometry relative="1" as="geometry">
            <mxPoint x="50" y="220" as="sourcePoint" />
            <Array as="points">
              <mxPoint x="80" y="250" />
            </Array>
          </mxGeometry>
        </mxCell>
        <mxCell id="aHi8xhGPnXS4gX-2XBMW-43" value="" style="html=1;points=[[0,0,0,0,5],[0,1,0,0,-5],[1,0,0,0,5],[1,1,0,0,-5]];perimeter=orthogonalPerimeter;outlineConnect=0;targetShapes=umlLifeline;portConstraint=eastwest;newEdgeStyle={&quot;curved&quot;:0,&quot;rounded&quot;:0};" vertex="1" parent="aHi8xhGPnXS4gX-2XBMW-35">
          <mxGeometry x="45" y="420" width="10" height="40" as="geometry" />
        </mxCell>
        <mxCell id="aHi8xhGPnXS4gX-2XBMW-44" value="6、生成 token" style="html=1;align=left;spacingLeft=2;endArrow=block;rounded=0;edgeStyle=orthogonalEdgeStyle;curved=0;rounded=0;" edge="1" target="aHi8xhGPnXS4gX-2XBMW-43" parent="aHi8xhGPnXS4gX-2XBMW-35">
          <mxGeometry x="0.0118" relative="1" as="geometry">
            <mxPoint x="50" y="400" as="sourcePoint" />
            <Array as="points">
              <mxPoint x="80" y="430" />
            </Array>
            <mxPoint as="offset" />
          </mxGeometry>
        </mxCell>
        <mxCell id="aHi8xhGPnXS4gX-2XBMW-36" value="DB" style="shape=umlLifeline;perimeter=lifelinePerimeter;whiteSpace=wrap;html=1;container=1;dropTarget=0;collapsible=0;recursiveResize=0;outlineConnect=0;portConstraint=eastwest;newEdgeStyle={&quot;curved&quot;:0,&quot;rounded&quot;:0};fillColor=#dae8fc;strokeColor=#6c8ebf;strokeWidth=2;" vertex="1" parent="1">
          <mxGeometry x="100" y="2820" width="100" height="620" as="geometry" />
        </mxCell>
        <mxCell id="aHi8xhGPnXS4gX-2XBMW-37" value="1、发起认证请求" style="html=1;verticalAlign=bottom;endArrow=block;curved=0;rounded=0;entryX=0.46;entryY=0.22;entryDx=0;entryDy=0;entryPerimeter=0;" edge="1" parent="1" source="aHi8xhGPnXS4gX-2XBMW-33" target="aHi8xhGPnXS4gX-2XBMW-34">
          <mxGeometry width="80" relative="1" as="geometry">
            <mxPoint x="-535" y="2930" as="sourcePoint" />
            <mxPoint x="-370" y="2930" as="targetPoint" />
          </mxGeometry>
        </mxCell>
        <mxCell id="aHi8xhGPnXS4gX-2XBMW-38" value="2、携带 username 和 password + Basic Auth&lt;div&gt;grant_type=authorization_password&lt;br&gt;&lt;/div&gt;" style="html=1;verticalAlign=bottom;endArrow=block;curved=0;rounded=0;entryX=0.52;entryY=0.29;entryDx=0;entryDy=0;entryPerimeter=0;" edge="1" parent="1" source="aHi8xhGPnXS4gX-2XBMW-34" target="aHi8xhGPnXS4gX-2XBMW-35">
          <mxGeometry width="80" relative="1" as="geometry">
            <mxPoint x="-310" y="3000" as="sourcePoint" />
            <mxPoint x="-120" y="3000" as="targetPoint" />
            <mxPoint as="offset" />
          </mxGeometry>
        </mxCell>
        <mxCell id="aHi8xhGPnXS4gX-2XBMW-39" value="&lt;div&gt;4、验证 username 和 password&lt;/div&gt;" style="html=1;verticalAlign=bottom;endArrow=block;curved=0;rounded=0;entryX=0.49;entryY=0.518;entryDx=0;entryDy=0;entryPerimeter=0;" edge="1" parent="1" source="aHi8xhGPnXS4gX-2XBMW-35" target="aHi8xhGPnXS4gX-2XBMW-36">
          <mxGeometry x="0.0048" width="80" relative="1" as="geometry">
            <mxPoint x="-30" y="3140" as="sourcePoint" />
            <mxPoint x="130" y="3140" as="targetPoint" />
            <mxPoint as="offset" />
          </mxGeometry>
        </mxCell>
        <mxCell id="aHi8xhGPnXS4gX-2XBMW-42" value="5、返回 UserInfo" style="html=1;verticalAlign=bottom;endArrow=open;dashed=1;endSize=8;curved=0;rounded=0;entryX=0.53;entryY=0.582;entryDx=0;entryDy=0;entryPerimeter=0;" edge="1" parent="1" source="aHi8xhGPnXS4gX-2XBMW-36" target="aHi8xhGPnXS4gX-2XBMW-35">
          <mxGeometry x="0.0001" relative="1" as="geometry">
            <mxPoint x="120" y="3180" as="sourcePoint" />
            <mxPoint x="-30" y="3180" as="targetPoint" />
            <mxPoint as="offset" />
          </mxGeometry>
        </mxCell>
        <mxCell id="aHi8xhGPnXS4gX-2XBMW-45" value="7、返回 token" style="html=1;verticalAlign=bottom;endArrow=open;dashed=1;endSize=8;curved=0;rounded=0;entryX=0.48;entryY=0.792;entryDx=0;entryDy=0;entryPerimeter=0;" edge="1" parent="1" source="aHi8xhGPnXS4gX-2XBMW-35" target="aHi8xhGPnXS4gX-2XBMW-34">
          <mxGeometry x="0.0001" relative="1" as="geometry">
            <mxPoint x="-92" y="3310" as="sourcePoint" />
            <mxPoint x="-300" y="3310.08" as="targetPoint" />
            <mxPoint as="offset" />
          </mxGeometry>
        </mxCell>
        <mxCell id="aHi8xhGPnXS4gX-2XBMW-46" value="7、返回 token" style="html=1;verticalAlign=bottom;endArrow=open;dashed=1;endSize=8;curved=0;rounded=0;entryX=0.55;entryY=0.869;entryDx=0;entryDy=0;entryPerimeter=0;" edge="1" parent="1" source="aHi8xhGPnXS4gX-2XBMW-34" target="aHi8xhGPnXS4gX-2XBMW-33">
          <mxGeometry x="0.0001" relative="1" as="geometry">
            <mxPoint x="-370" y="3360" as="sourcePoint" />
            <mxPoint x="-490" y="3360" as="targetPoint" />
            <mxPoint as="offset" />
          </mxGeometry>
        </mxCell>
      </root>
    </mxGraphModel>
  </diagram>
</mxfile>
